# xmcd
#
# Track frame offsets:
#	150
#	11177
#	21813
#	34784
#	53003
#	65770
#	86735
#	103534
#	122391
#	140709
#	165972
#	187469
#	208142
#	230003
#	249884
#	264344
#	278298
#	298889
#	322212
#
# Disc length: 4430 seconds
#
# Revision: 1
# Processed by: cddbd v1.5.2PL0 Copyright (c) Steve Scherf et al.
# Submitted via: audiograbber 1.83.01
#
DISCID=19114c13
DTITLE=Cuba Fiesta Tropical - Cuba Fiesta Tropical CD2
DYEAR=2008
DGENRE=Cuba
TTITLE0=Patricia
TTITLE1=Mambo Sinuendo
TTITLE2=El Timbalon
TTITLE3=Vereda Tropical
TTITLE4=Bonito Y Sabroso
TTITLE5=El Traguito
TTITLE6=El Bodeguero
TTITLE7=Mambo Diablo
TTITLE8=Rico Cha-Cha-Cha
TTITLE9=Lagrimas Negras
TTITLE10=Maracaibo Oriental
TTITLE11=Yenuere
TTITLE12=Si Tu Te Vas
TTITLE13=La Plegaria Del Son
TTITLE14=Mambo King
TTITLE15=Mambo No.8
TTITLE16=Fiel Enamorado
TTITLE17=Chan Chan
TTITLE18=Mambo Jambo (Que Rico El Mambo)
EXTD=Cuba Fiesta Tropical\nIzdane- Reader's Digest 2003
EXTT0=
EXTT1=
EXTT2=
EXTT3=
EXTT4=
EXTT5=
EXTT6=
EXTT7=
EXTT8=
EXTT9=
EXTT10=
EXTT11=
EXTT12=
EXTT13=
EXTT14=
EXTT15=
EXTT16=
EXTT17=
EXTT18=
PLAYORDER=
